<svg id="_x33_0" enable-background="new 0 0 64 64" height="512" viewBox="0 0 64 64" width="512" xmlns="http://www.w3.org/2000/svg" fill="gold"><g><path d="m30.403 41h3.193c3.648 0 7.056-1.584 9.403-4.358v-3.519c0-1.781.149-3.564.425-5.326-1.472.774-3.119 1.203-4.829 1.203h-.595c-2.548 0-4.775-1.373-6-3.413-1.225 2.04-3.452 3.413-6 3.413h-.595c-1.71 0-3.357-.429-4.83-1.202.276 1.762.425 3.544.425 5.325v3.519c2.347 2.774 5.755 4.358 9.403 4.358zm6.597-4h-.172c-1.772 0-3.456-.586-4.828-1.665-1.372 1.08-3.055 1.665-4.828 1.665h-.172v-2h.172c1.557 0 3.02-.606 4.121-1.707l.707-.707.707.707c1.101 1.101 2.565 1.707 4.121 1.707h.172zm-12-6h2.171c1.557 0 3.021-.606 4.122-1.707l.707-.707.707.707c1.101 1.101 2.565 1.707 4.122 1.707h2.171v2h-2.171c-1.773 0-3.456-.586-4.829-1.665-1.373 1.079-3.056 1.665-4.829 1.665h-2.171z"/><path d="m15 12.878-1.575.629 1.575 2.834z"/><path d="m31 6.976c-1.448-.059-4.14-.264-6-.972v1.792c.548.406 2.859 1.058 6 1.179z"/><path d="m33 8.975c3.141-.121 5.452-.773 6-1.179v-1.792c-1.86.708-4.552.912-6 .972z"/><path d="m49 12.878v3.463l1.575-2.834z"/><path d="m53 16.754c0-.296-.086-.581-.25-.827l-.672-1.008-3.117 5.61 3.443-2.582c.373-.28.596-.725.596-1.193z"/><path d="m11.596 17.946 3.444 2.583-3.117-5.61-.672 1.008c-.165.246-.251.531-.251.827 0 .468.223.913.596 1.192z"/><ellipse cx="32" cy="4" rx="6.621" ry="1"/><path d="m25.405 27h.595c2.757 0 5-2.243 5-5v-.147c0-1.296-.505-2.515-1.422-3.432-.917-.916-2.136-1.421-3.431-1.421h-.001-.234c-1.606 0-2.912 1.309-2.912 2.917 0 .638.439 1.083 1 1.083.551 0 1-.449 1-1.001v-.999h2v.999c0 1.654-1.346 3.001-3 3.001-1.653 0-2.999-1.352-3-3.014 0-2.78 2.204-4.986 4.911-4.986h.234.002c1.83 0 3.55.713 4.845 2.007.393.393.726.829 1.008 1.293.282-.463.615-.899 1.008-1.293 1.295-1.294 3.015-2.007 4.845-2.007h.002.233c2.708 0 4.912 2.206 4.912 4.917 0 1.731-1.346 3.083-3 3.083s-3-1.347-3-3.001v-.999h2v.999c0 .552.449 1.001 1 1.001.56 0 .999-.445 1-1.014 0-1.677-1.306-2.986-2.911-2.986h-.234-.001c-1.296 0-2.515.505-3.432 1.421-.917.917-1.422 2.136-1.422 3.432v.147c0 2.757 2.243 5 5 5h.595c2.501 0 4.855-1.103 6.458-3.024 1.255-1.508 1.947-3.419 1.947-5.381v-7.033c0-.46-.312-.858-.758-.971l-5.789-1.447c-1.883 1.824-8.141 1.856-8.453 1.856s-6.57-.032-8.453-1.856l-5.789 1.447c-.446.112-.758.511-.758.971v7.033c0 1.962.692 3.873 1.948 5.382 1.602 1.92 3.956 3.023 6.457 3.023z"/><path d="m33.597 43h-3.193c-.176 0-.349-.023-.524-.029l-1.823 13.672 3.943 3.943 3.943-3.943-1.823-13.672c-.175.006-.347.029-.523.029zm-1.597 14c-.552 0-1-.448-1-1s.448-1 1-1 1 .448 1 1-.448 1-1 1z"/><path d="m36.11 42.758 1.797 13.474 5.357 1.652 1.562-4.685-5.544-11.391c-1.012.439-2.074.756-3.172.95zm4.89 9.242c.552 0 1 .448 1 1s-.448 1-1 1-1-.448-1-1 .448-1 1-1z"/><path d="m19.174 53.2 1.562 4.685 5.357-1.652 1.797-13.474c-1.098-.194-2.16-.511-3.172-.949zm3.826.8c-.552 0-1-.448-1-1s.448-1 1-1 1 .448 1 1-.448 1-1 1z"/><path d="m44.079 38.408c-.901.972-1.909 1.814-3.016 2.491l5.403 11.101h6.401l-.813-6.503zm4.921 10.592c-.552 0-1-.448-1-1s.448-1 1-1 1 .448 1 1-.448 1-1 1z"/><path d="m19.921 38.408-7.975 7.089-.813 6.503h6.401l5.403-11.101c-1.107-.677-2.115-1.519-3.016-2.491zm-4.921 10.592c-.552 0-1-.448-1-1s.448-1 1-1 1 .448 1 1-.448 1-1 1z"/></g></svg>