<?xml version="1.0" encoding="iso-8859-1"?>
<!-- Generator: Adobe Illustrator 19.0.0, SVG Export Plug-In . SVG Version: 6.00 Build 0)  -->
<svg version="1.1" id="Capa_1" xmlns="http://www.w3.org/2000/svg" xmlns:xlink="http://www.w3.org/1999/xlink" x="0px" y="0px"
	 viewBox="0 0 313.048 313.048" style="enable-background:new 0 0 313.048 313.048;" xml:space="preserve">
<g>
	<g>
		<path d="M100.123,257.498l-5.688-37.658l-38.707-6.881c-3.604-0.642-6.915,1.741-7.393,5.32c-0.478,3.581,2.057,7.002,5.661,7.642
			l28.904,5.139l4.204,27.826c0.546,3.616,3.903,6.236,7.499,5.854C98.198,264.355,100.669,261.115,100.123,257.498z"/>
	</g>
</g>
<g>
	<g>
		<path d="M75.987,281.634l-5.688-37.658l-38.707-6.881c-3.604-0.642-6.915,1.741-7.393,5.32c-0.478,3.581,2.057,7.001,5.661,7.642
			l28.904,5.139l4.204,27.826c0.546,3.616,3.903,6.236,7.499,5.854C74.062,288.491,76.533,285.25,75.987,281.634z"/>
	</g>
</g>
<g>
	<g>
		<path d="M51.851,305.769l-5.688-37.658l-38.707-6.881c-3.604-0.642-6.915,1.741-7.393,5.32c-0.478,3.581,2.057,7.001,5.661,7.642
			l28.904,5.139l4.204,27.826c0.546,3.616,3.903,6.236,7.499,5.854C49.926,312.627,52.397,309.386,51.851,305.769z"/>
	</g>
</g>
<g>
	<g>
		
			<rect x="-26.33" y="169.537" transform="matrix(0.7071 -0.7071 0.7071 0.7071 -84.675 148.3037)" width="326.021" height="13.653"/>
	</g>
</g>
<g>
	<g>
		<path d="M311.043,2.003c-1.881-1.888-4.707-2.504-7.187-1.58l-91.713,33.79c-2.553,0.944-4.306,3.309-4.453,6.03
			c-0.154,2.717,1.326,5.263,3.76,6.484l36.581,18.29l18.294,36.584c1.161,2.319,3.533,3.773,6.106,3.773
			c0.126,0,0.253-0.003,0.379-0.012c2.714-0.15,5.086-1.903,6.026-4.456L312.623,9.19C313.543,6.69,312.924,3.887,311.043,2.003z
			 M271.477,81.382l-12.254-24.503c-0.66-1.319-1.734-2.393-3.053-3.053l-24.499-12.254l63.026-23.221L271.477,81.382z"/>
	</g>
</g>
<g>
</g>
<g>
</g>
<g>
</g>
<g>
</g>
<g>
</g>
<g>
</g>
<g>
</g>
<g>
</g>
<g>
</g>
<g>
</g>
<g>
</g>
<g>
</g>
<g>
</g>
<g>
</g>
<g>
</g>
</svg>
