<svg id="Capa_1" enable-background="new 0 0 511.6 511.6" height="512" viewBox="0 0 511.6 511.6" width="512" xmlns="http://www.w3.org/2000/svg"><g><path d="m391.896 286.182c-8.284 0-15-6.716-15-15s6.716-15 15-15h19.72c.003.034.005.069.008.104 0-.034.005-.072.002-.104-2.816-31.988-17.034-61.644-40.577-84.265-11.764-11.303-25.238-20.26-39.813-26.638l-2.818 33.469c-1.947 23.117-21.644 41.225-44.842 41.225h-55.551c-23.198 0-42.895-18.108-44.842-41.224l-2.818-33.47c-14.574 6.378-28.048 15.334-39.812 26.637-23.544 22.623-37.763 52.279-40.578 84.267-.002.022.004.05.004.073.002-.024.003-.048.005-.072h21.158c8.284 0 15 6.716 15 15s-6.716 15-15 15h-21.685v148.966c0 1.844.936 3.524 2.504 4.494l114.967 71.166c.837.518 1.799.791 2.783.791.883 0 1.758-.224 2.533-.647 1.666-.91 2.719-2.654 2.75-4.552l1.651-101.262c.023-1.363-.474-2.665-1.398-3.668l-42.162-45.772c-1.701-1.846-2.645-4.265-2.645-6.775v-54.522c0-4.487 5.452-6.703 8.582-3.488l62.993 64.698c.988 1.015 2.368 1.598 3.785 1.598s2.798-.582 3.786-1.599l62.99-64.696c3.13-3.215 8.582-.999 8.582 3.488v54.522c0 2.51-.944 4.929-2.645 6.775l-42.163 45.772c-.923 1.002-1.419 2.305-1.397 3.667l1.651 101.263c.031 1.898 1.084 3.642 2.749 4.551.776.424 1.653.648 2.535.648.984 0 1.945-.274 2.781-.791l114.969-71.166c1.567-.97 2.503-2.65 2.503-4.494v-148.969z"/><path d="m283.575 189.97h-55.55c-7.796 0-14.293-5.973-14.947-13.742l-13.469-159.97c-.737-8.749 6.166-16.258 14.947-16.258h82.488c8.781 0 15.684 7.509 14.947 16.258l-13.469 159.97c-.654 7.769-7.151 13.742-14.947 13.742z"/></g></svg>