<svg height="433pt" viewBox="0 -50 433.996 433" width="433pt" xmlns="http://www.w3.org/2000/svg"><path d="m145.175781 223.84375 62.253907-70.351562-97.089844-50.367188-37.644532 99.367188zm0 0"/><path d="m59.894531 215.402344c-2.136719-.628906-3.914062-2.121094-4.902343-4.117188-.992188-1.992187-1.105469-4.308594-.316407-6.390625l41.570313-109.726562-85.0625-53.53125-11.183594 190.972656 78.660156 69.015625 55.042969-64.484375zm0 0"/><path d="m250.042969 52.808594-58.523438-52.3125c-13.507812 6.894531-51.074219 25.519531-72.246093 30.550781-.53125.128906-1.074219.199219-1.621094.214844l-88.8125 2.582031 81.183594 51.089844 105.980468 54.984375zm0 0"/><path d="m323.480469 152.128906 35.113281-88.589844-93.726562-4.714843-36.097657 92.378906 22.25 60.65625zm0 0"/><path d="m338.777344 156.957031 59.605468 147.050781 35.613282-62.535156-63.902344-163.519531zm0 0"/><path d="m153.84375 238.191406-58.8125 68.898438 183.304688 25.6875-61.015626-166.320313zm0 0"/><path d="m256.859375 227.78125 38.757813 105.648438 90.46875-17.164063-59.246094-146.167969zm0 0"/></svg>